<?xml version="1.0" encoding="UTF-8" standalone="no"?>
<svg
   xmlns:dc="http://purl.org/dc/elements/1.1/"
   xmlns:cc="http://creativecommons.org/ns#"
   xmlns:rdf="http://www.w3.org/1999/02/22-rdf-syntax-ns#"
   xmlns:svg="http://www.w3.org/2000/svg"
   xmlns="http://www.w3.org/2000/svg"
   xmlns:sodipodi="http://sodipodi.sourceforge.net/DTD/sodipodi-0.dtd"
   xmlns:inkscape="http://www.inkscape.org/namespaces/inkscape"
   version="1.1"
   id="Layer_2"
   x="0px"
   y="0px"
   width="1201px"
   height="1201px"
   viewBox="0 0 1201 1201"
   enable-background="new 0 0 1201 1201"
   xml:space="preserve"
   sodipodi:docname="vectorstock_jet_turbine-rmr1.svg"
   inkscape:version="1.0 (4035a4f, 2020-05-01)"><metadata
   id="metadata107"><rdf:RDF><cc:Work
       rdf:about=""><dc:format>image/svg+xml</dc:format><dc:type
         rdf:resource="http://purl.org/dc/dcmitype/StillImage" /><dc:title></dc:title></cc:Work></rdf:RDF></metadata><defs
   id="defs105"><inkscape:path-effect
   lpeversion="1"
   is_visible="true"
   id="path-effect1027"
   effect="spiro" /><inkscape:perspective
   id="perspective1007"
   inkscape:persp3d-origin="600.5 : 400.33333 : 1"
   inkscape:vp_z="1201 : 600.5 : 1"
   inkscape:vp_y="0 : 1000 : 0"
   inkscape:vp_x="0 : 600.5 : 1"
   sodipodi:type="inkscape:persp3d" /><rect
   x="95.232401"
   y="121.89747"
   width="102.85099"
   height="50.790614"
   id="rect443" />
	
	
	
	

		
	
			
			
			
			
			
			
			
			
			
			
			
			
			
			
			
			
			
			
			
			
			
			
			
			
			
			
			
			
			
			
			
			
			
			
			
			
		<rect
   id="rect69"
   height="50.790614"
   width="102.85099"
   y="121.89747"
   x="95.232401" /></defs><sodipodi:namedview
   inkscape:document-rotation="0"
   pagecolor="#ffffff"
   bordercolor="#666666"
   borderopacity="1"
   objecttolerance="10"
   gridtolerance="10"
   guidetolerance="10"
   inkscape:pageopacity="0"
   inkscape:pageshadow="2"
   inkscape:window-width="1571"
   inkscape:window-height="1140"
   id="namedview103"
   showgrid="false"
   inkscape:snap-global="false"
   inkscape:zoom="0.81795508"
   inkscape:cx="657.2749"
   inkscape:cy="501.24329"
   inkscape:window-x="37"
   inkscape:window-y="23"
   inkscape:window-maximized="0"
   inkscape:current-layer="Layer_2" />
<g
   id="g182"><g
     id="g138"><path
       id="path10"
       d="M 237.483,608.359 198.16,604.975 H 84.854 c -1.046,0 -2.005,0.481 -2.629,1.321 -0.625,0.841 -0.81,1.897 -0.509,2.9 l 9.366,31.117 21.698,-3.826 c -1.062,-6.479 -1.821,-13.04 -2.262,-19.537 -0.048,-0.686 0.175,-1.354 0.63,-1.875 0.455,-0.521 1.085,-0.834 1.776,-0.88 0.621,-0.06 1.317,0.159 1.844,0.605 0.529,0.449 0.859,1.103 0.908,1.793 0.429,6.317 1.167,12.695 2.196,18.995 l 81.804,-14.424 c 0.065,-0.012 0.131,-0.021 0.197,-0.026 l 2.158,-0.192 36.116,-6.362"
       fill="#464646"
       style="fill:#073984" /><path
       id="path12"
       d="M 239.673,622.231 200.379,625.724 88.794,645.4 c -1.031,0.182 -1.892,0.823 -2.36,1.759 -0.469,0.936 -0.468,2.009 0.003,2.943 l 14.626,29.018 20.704,-7.535 c -2.169,-6.196 -4.057,-12.525 -5.62,-18.847 -0.166,-0.672 -0.061,-1.365 0.294,-1.955 0.357,-0.593 0.925,-1.012 1.597,-1.177 0.604,-0.167 1.327,-0.071 1.923,0.278 0.598,0.351 1.037,0.937 1.204,1.607 1.52,6.148 3.354,12.301 5.461,18.324 l 78.057,-28.41 c 0.062,-0.022 0.125,-0.043 0.188,-0.06 l 2.093,-0.563 34.478,-12.544"
       fill="#464646"
       style="fill:#073984" /><path
       id="path14"
       d="m 244.28,635.504 -38.113,10.271 -106.473,38.752 c -0.984,0.357 -1.719,1.138 -2.019,2.142 -0.3,1.003 -0.112,2.06 0.514,2.898 l 19.443,26.037 19.081,-11.017 c -3.215,-5.728 -6.173,-11.633 -8.808,-17.585 -0.575,-1.302 0.015,-2.83 1.312,-3.408 0.58,-0.273 1.306,-0.303 1.95,-0.063 0.647,0.24 1.181,0.739 1.463,1.369 2.566,5.795 5.44,11.536 8.562,17.103 L 213.13,660.47 c 0.057,-0.032 0.115,-0.062 0.175,-0.091 l 1.963,-0.919 31.773,-18.339"
       fill="#464646"
       style="fill:#073984" /><path
       id="path16"
       d="m 251.101,647.78 -35.751,16.733 -98.126,56.654 c -0.907,0.523 -1.496,1.419 -1.617,2.459 -0.121,1.04 0.247,2.047 1.01,2.765 l 23.668,22.266 16.878,-14.162 c -4.161,-5.083 -8.1,-10.386 -11.728,-15.789 -0.792,-1.186 -0.476,-2.791 0.701,-3.586 0.522,-0.369 1.232,-0.524 1.909,-0.398 0.679,0.124 1.291,0.523 1.678,1.095 3.533,5.26 7.36,10.414 11.401,15.354 l 63.632,-53.395 c 0.051,-0.042 0.103,-0.083 0.157,-0.121 l 1.773,-1.245 28.137,-23.603"
       fill="#464646"
       style="fill:#073984" /><path
       id="path18"
       d="m 259.975,658.669 -32.329,22.705 -86.798,72.832 c -0.802,0.673 -1.227,1.658 -1.165,2.704 0.062,1.044 0.599,1.973 1.474,2.546 l 27.176,17.817 14.163,-16.878 c -4.981,-4.285 -9.781,-8.823 -14.292,-13.513 -0.988,-1.029 -0.955,-2.669 0.073,-3.655 0.432,-0.442 1.101,-0.723 1.789,-0.723 0.002,0 0.005,0 0.008,10e-4 0.694,0.002 1.369,0.288 1.851,0.786 4.392,4.566 9.057,8.979 13.895,13.142 l 53.394,-63.632 c 0.042,-0.05 0.087,-0.099 0.134,-0.146 l 1.53,-1.533 23.611,-28.131"
       fill="#464646"
       style="fill:#073984" /><path
       id="path20"
       d="m 270.57,667.877 -27.887,27.966 -72.832,86.798 c -0.672,0.802 -0.919,1.846 -0.677,2.864 0.242,1.018 0.933,1.84 1.894,2.252 l 29.857,12.828 11.017,-19.081 c -5.646,-3.353 -11.161,-6.987 -16.42,-10.824 -0.558,-0.409 -0.922,-1.008 -1.03,-1.686 -0.108,-0.686 0.058,-1.371 0.467,-1.931 0.35,-0.512 0.964,-0.903 1.645,-1.021 0.686,-0.114 1.398,0.049 1.959,0.454 5.118,3.735 10.478,7.269 15.964,10.529 l 41.533,-71.937 c 0.034,-0.057 0.069,-0.113 0.106,-0.167 l 1.24,-1.776 18.354,-31.78"
       fill="#464646"
       style="fill:#073984" /><path
       id="path22"
       d="m 282.593,675.124 -22.588,32.356 -56.653,98.126 c -0.523,0.907 -0.585,1.978 -0.17,2.938 0.415,0.961 1.238,1.649 2.256,1.89 l 31.631,7.449 7.536,-20.705 c -6.142,-2.32 -12.204,-4.942 -18.051,-7.809 -1.281,-0.637 -1.808,-2.185 -1.185,-3.458 0.261,-0.573 0.798,-1.065 1.448,-1.298 0.653,-0.234 1.385,-0.194 2.008,0.11 5.685,2.787 11.578,5.337 17.548,7.595 l 28.41,-78.056 c 0.022,-0.062 0.047,-0.124 0.075,-0.184 l 0.914,-1.966 12.554,-34.478"
       fill="#464646"
       style="fill:#073984" /><path
       id="path24"
       d="m 295.71,680.146 -16.627,35.788 -38.753,106.474 c -0.358,0.983 -0.233,2.049 0.343,2.923 0.576,0.875 1.506,1.41 2.551,1.47 l 32.443,1.842 3.826,-21.697 c -6.45,-1.219 -12.875,-2.749 -19.133,-4.557 -1.37,-0.401 -2.16,-1.836 -1.766,-3.199 0.159,-0.61 0.601,-1.188 1.2,-1.529 0.601,-0.343 1.327,-0.433 1.993,-0.242 6.086,1.759 12.332,3.247 18.604,4.435 l 14.425,-81.804 c 0.011,-0.065 0.025,-0.131 0.042,-0.194 l 0.558,-2.094 6.372,-36.108"
       fill="#464646"
       style="fill:#073984" /><path
       id="path26"
       d="m 309.496,682.831 -10.155,38.115 -19.675,111.584 c -0.182,1.031 0.126,2.059 0.845,2.819 0.719,0.76 1.724,1.126 2.767,1.004 l 32.271,-3.819 v -22.033 c -6.562,-0.079 -13.156,-0.47 -19.633,-1.163 -1.417,-0.155 -2.446,-1.431 -2.296,-2.844 0.05,-0.628 0.386,-1.272 0.915,-1.714 0.532,-0.443 1.233,-0.657 1.92,-0.587 6.305,0.676 12.714,1.058 19.094,1.137 v -83.065 c 0,-0.065 0.003,-0.132 0.008,-0.197 l 0.186,-2.16 0.005,-36.696"
       fill="#464646"
       style="fill:#073984" /><path
       id="path28"
       d="m 323.545,683.041 -3.384,39.322 V 835.67 c 0,1.046 0.481,2.005 1.321,2.63 0.84,0.624 1.897,0.808 2.899,0.509 l 31.117,-9.366 -3.826,-21.698 c -6.484,1.062 -13.046,1.822 -19.537,2.263 -1.432,0.073 -2.66,-0.989 -2.755,-2.407 -0.06,-0.622 0.159,-1.316 0.606,-1.843 0.448,-0.528 1.102,-0.86 1.793,-0.908 6.318,-0.43 12.695,-1.167 18.994,-2.197 L 336.35,720.849 c -0.012,-0.064 -0.021,-0.129 -0.026,-0.195 l -0.192,-2.159 -6.363,-36.116"
       fill="#464646"
       style="fill:#073984" /><path
       id="path30"
       d="m 337.417,680.851 3.494,39.294 19.675,111.585 c 0.182,1.031 0.823,1.892 1.759,2.36 0.936,0.47 2.009,0.469 2.942,-0.003 l 29.019,-14.626 -7.536,-20.704 c -6.199,2.171 -12.529,4.059 -18.847,5.619 -1.38,0.348 -2.783,-0.5 -3.129,-1.883 -0.168,-0.613 -0.073,-1.336 0.275,-1.931 0.351,-0.598 0.937,-1.037 1.608,-1.204 6.148,-1.521 12.301,-3.354 18.324,-5.461 l -28.41,-78.058 c -0.022,-0.062 -0.042,-0.124 -0.06,-0.188 l -0.563,-2.093 -12.543,-34.478"
       fill="#464646"
       style="fill:#073984" /><path
       id="path32"
       d="m 350.689,676.244 10.27,38.111 38.753,106.475 c 0.358,0.983 1.139,1.719 2.142,2.02 1.004,0.299 2.059,0.11 2.898,-0.516 l 26.038,-19.442 -11.016,-19.081 c -5.731,3.216 -11.637,6.174 -17.585,8.808 -0.626,0.279 -1.331,0.298 -1.976,0.049 -0.646,-0.249 -1.156,-0.735 -1.436,-1.369 -0.269,-0.563 -0.301,-1.29 -0.061,-1.938 0.24,-0.65 0.741,-1.185 1.373,-1.467 5.792,-2.564 11.533,-5.439 17.099,-8.562 l -41.533,-71.937 c -0.033,-0.057 -0.063,-0.115 -0.091,-0.175 l -0.918,-1.963 -18.338,-31.773"
       fill="#464646"
       style="fill:#073984" /><path
       id="path34"
       d="m 362.966,669.423 16.733,35.752 56.653,98.126 c 0.523,0.906 1.42,1.496 2.46,1.616 1.04,0.119 2.047,-0.247 2.765,-1.01 L 463.843,780.238 449.68,763.36 c -5.077,4.155 -10.38,8.096 -15.789,11.728 -1.193,0.795 -2.799,0.475 -3.591,-0.71 -0.359,-0.501 -0.518,-1.213 -0.396,-1.894 0.124,-0.684 0.525,-1.298 1.101,-1.687 5.254,-3.529 10.409,-7.356 15.351,-11.398 l -53.394,-63.633 c -0.042,-0.051 -0.083,-0.103 -0.121,-0.156 l -1.245,-1.774 -23.602,-28.136"
       fill="#464646"
       style="fill:#073984" /><path
       id="path36"
       d="m 373.854,660.55 22.704,32.328 72.833,86.798 c 0.673,0.802 1.664,1.231 2.703,1.165 1.045,-0.062 1.974,-0.6 2.547,-1.476 L 492.458,752.19 475.58,738.027 c -4.281,4.977 -8.818,9.776 -13.512,14.291 -0.501,0.482 -1.161,0.716 -1.851,0.722 -0.692,-0.016 -1.336,-0.3 -1.812,-0.802 -0.439,-0.432 -0.718,-1.104 -0.715,-1.795 0.004,-0.693 0.292,-1.367 0.791,-1.849 4.564,-4.39 8.975,-9.053 13.138,-13.89 l -63.632,-53.396 c -0.05,-0.042 -0.099,-0.087 -0.146,-0.133 l -1.535,-1.529 -28.131,-23.612"
       fill="#464646"
       style="fill:#073984" /><path
       id="path38"
       d="m 383.062,649.953 27.966,27.887 86.797,72.833 c 0.802,0.673 1.847,0.923 2.864,0.677 1.018,-0.24 1.839,-0.932 2.252,-1.894 L 515.769,719.6 496.688,708.582 c -3.352,5.646 -6.986,11.16 -10.825,16.42 -0.84,1.148 -2.456,1.403 -3.606,0.571 -0.522,-0.36 -0.914,-0.974 -1.03,-1.654 -0.117,-0.684 0.048,-1.396 0.455,-1.957 3.733,-5.115 7.267,-10.476 10.529,-15.964 l -71.937,-41.533 c -0.058,-0.033 -0.113,-0.069 -0.167,-0.107 l -1.776,-1.24 -31.78,-18.354"
       fill="#464646"
       style="fill:#073984" /><path
       id="path40"
       d="m 390.309,637.931 32.357,22.589 98.126,56.653 c 0.907,0.523 1.979,0.586 2.938,0.17 0.961,-0.415 1.649,-1.237 1.889,-2.257 l 7.449,-31.632 -20.704,-7.535 c -2.321,6.143 -4.943,12.204 -7.81,18.051 -0.625,1.277 -2.176,1.81 -3.456,1.187 -0.578,-0.266 -1.068,-0.803 -1.3,-1.451 -0.233,-0.651 -0.193,-1.382 0.109,-2.004 2.788,-5.687 5.338,-11.58 7.597,-17.551 l -78.057,-28.41 c -0.062,-0.022 -0.123,-0.048 -0.183,-0.075 l -1.965,-0.913 -34.479,-12.555"
       fill="#464646"
       style="fill:#073984" /><path
       id="path42"
       d="m 395.331,624.813 35.787,16.627 106.474,38.753 c 0.985,0.358 2.05,0.233 2.923,-0.344 0.875,-0.575 1.41,-1.505 1.469,-2.549 l 1.842,-32.444 -21.698,-3.826 c -1.22,6.454 -2.75,12.879 -4.556,19.133 -0.399,1.366 -1.832,2.16 -3.195,1.768 -0.622,-0.165 -1.196,-0.607 -1.536,-1.206 -0.341,-0.6 -0.428,-1.324 -0.239,-1.988 1.759,-6.089 3.247,-12.335 4.434,-18.604 l -81.804,-14.424 c -0.065,-0.012 -0.13,-0.025 -0.193,-0.043 l -2.094,-0.558 -36.108,-6.373"
       fill="#464646"
       style="fill:#073984" /><path
       id="path44"
       d="m 398.016,611.027 38.115,10.155 111.585,19.676 c 1.033,0.182 2.059,-0.126 2.819,-0.846 0.761,-0.719 1.127,-1.727 1.004,-2.767 l -3.82,-32.271 h -22.033 c -0.08,6.567 -0.471,13.161 -1.165,19.633 -0.072,0.685 -0.409,1.303 -0.948,1.737 -0.539,0.436 -1.213,0.633 -1.902,0.558 -0.622,-0.049 -1.268,-0.386 -1.709,-0.917 -0.442,-0.533 -0.655,-1.235 -0.582,-1.925 0.674,-6.294 1.055,-12.702 1.135,-19.086 H 437.45 c -0.066,0 -0.132,-0.003 -0.198,-0.009 l -2.159,-0.186 -36.697,-0.005"
       fill="#464646"
       style="fill:#073984" /><path
       id="path46"
       d="m 398.226,596.979 39.323,3.385 h 113.306 c 1.047,0 2.005,-0.482 2.63,-1.322 0.625,-0.84 0.81,-1.896 0.508,-2.899 l -9.365,-31.117 -21.698,3.826 c 1.062,6.482 1.821,13.043 2.262,19.537 0.046,0.689 -0.178,1.354 -0.629,1.873 -0.455,0.522 -1.086,0.836 -1.776,0.882 -0.621,0.056 -1.315,-0.159 -1.842,-0.604 -0.528,-0.447 -0.86,-1.098 -0.911,-1.788 -0.43,-6.327 -1.167,-12.705 -2.196,-19.002 l -81.804,14.424 c -0.065,0.012 -0.131,0.021 -0.196,0.026 l -2.158,0.192 -36.116,6.363"
       fill="#464646"
       style="fill:#073984" /><path
       id="path48"
       d="m 396.036,583.107 39.293,-3.494 111.585,-19.675 c 1.031,-0.182 1.891,-0.822 2.36,-1.758 0.469,-0.936 0.468,-2.009 -0.003,-2.943 l -14.626,-29.018 -20.704,7.536 c 2.169,6.197 4.058,12.526 5.62,18.847 0.167,0.667 0.061,1.364 -0.296,1.957 -0.358,0.593 -0.925,1.01 -1.598,1.174 -0.603,0.167 -1.325,0.071 -1.92,-0.278 -0.598,-0.35 -1.037,-0.936 -1.204,-1.608 -1.52,-6.147 -3.354,-12.3 -5.462,-18.324 l -78.056,28.411 c -0.062,0.022 -0.125,0.042 -0.189,0.06 l -2.092,0.564 -34.477,12.542"
       fill="#464646"
       style="fill:#073984" /><path
       id="path50"
       d="m 391.429,569.834 38.112,-10.27 106.474,-38.753 c 0.983,-0.358 1.72,-1.139 2.019,-2.142 0.3,-1.003 0.112,-2.059 -0.514,-2.898 l -19.443,-26.037 -19.081,11.016 c 3.213,5.727 6.171,11.631 8.808,17.585 0.576,1.306 -0.015,2.835 -1.317,3.411 -0.567,0.269 -1.295,0.3 -1.942,0.062 -0.65,-0.241 -1.184,-0.741 -1.466,-1.374 -2.563,-5.79 -5.438,-11.529 -8.561,-17.099 L 422.58,544.87 c -0.058,0.033 -0.116,0.063 -0.176,0.091 l -1.962,0.918 -31.773,18.338"
       fill="#464646"
       style="fill:#073984" /><path
       id="path52"
       d="m 384.608,557.558 35.751,-16.732 98.126,-56.653 c 0.907,-0.523 1.496,-1.42 1.617,-2.459 0.121,-1.04 -0.248,-2.047 -1.01,-2.765 l -23.669,-22.266 -16.878,14.163 c 4.161,5.083 8.099,10.385 11.728,15.789 0.794,1.186 0.477,2.795 -0.706,3.588 -0.509,0.362 -1.224,0.521 -1.899,0.397 -0.683,-0.124 -1.297,-0.524 -1.685,-1.1 -3.529,-5.254 -7.357,-10.409 -11.399,-15.351 l -63.632,53.394 c -0.051,0.043 -0.103,0.083 -0.157,0.121 l -1.773,1.246 -28.136,23.603"
       fill="#464646"
       style="fill:#073984" /><path
       id="path54"
       d="m 375.735,546.669 32.329,-22.705 86.797,-72.832 c 0.802,-0.673 1.227,-1.658 1.165,-2.703 -0.061,-1.045 -0.599,-1.974 -1.474,-2.547 l -27.176,-17.818 -14.163,16.878 c 4.977,4.281 9.776,8.818 14.291,13.512 0.989,1.03 0.956,2.67 -0.072,3.657 -0.438,0.446 -1.132,0.743 -1.8,0.721 -0.693,-0.003 -1.367,-0.29 -1.848,-0.787 -4.392,-4.566 -9.057,-8.978 -13.895,-13.142 l -53.394,63.632 c -0.042,0.05 -0.087,0.099 -0.133,0.146 l -1.53,1.534 -23.611,28.13"
       fill="#464646"
       style="fill:#073984" /><path
       id="path56"
       d="m 365.139,537.462 27.887,-27.965 72.833,-86.798 c 0.673,-0.802 0.92,-1.846 0.678,-2.864 -0.242,-1.018 -0.933,-1.839 -1.895,-2.253 l -29.856,-12.828 -11.017,19.081 c 5.646,3.353 11.161,6.988 16.42,10.826 0.557,0.406 0.923,1.006 1.03,1.69 0.106,0.683 -0.059,1.366 -0.467,1.924 -0.356,0.516 -0.97,0.907 -1.649,1.023 -0.683,0.116 -1.396,-0.05 -1.957,-0.456 -5.115,-3.732 -10.474,-7.267 -15.963,-10.528 l -41.533,71.937 c -0.033,0.058 -0.068,0.113 -0.106,0.167 l -1.241,1.777 -18.354,31.78"
       fill="#464646"
       style="fill:#073984" /><path
       id="path58"
       d="m 353.116,530.214 22.588,-32.356 56.653,-98.126 c 0.523,-0.906 0.586,-1.977 0.17,-2.938 -0.415,-0.961 -1.238,-1.65 -2.257,-1.889 l -31.63,-7.448 -7.537,20.704 c 6.145,2.322 12.207,4.944 18.051,7.81 0.617,0.301 1.083,0.828 1.307,1.481 0.225,0.654 0.182,1.356 -0.122,1.977 -0.265,0.575 -0.802,1.066 -1.452,1.298 -0.652,0.232 -1.382,0.192 -2.004,-0.111 -5.685,-2.787 -11.577,-5.337 -17.547,-7.596 l -28.411,78.057 c -0.022,0.062 -0.047,0.123 -0.076,0.183 l -0.913,1.965 -12.555,34.479"
       fill="#464646"
       style="fill:#073984" /><path
       id="path60"
       d="m 339.999,525.193 16.626,-35.788 38.754,-106.473 c 0.357,-0.983 0.232,-2.049 -0.343,-2.923 -0.576,-0.874 -1.506,-1.41 -2.551,-1.469 l -32.443,-1.842 -3.826,21.698 c 6.454,1.219 12.879,2.75 19.132,4.557 1.369,0.394 2.162,1.83 1.767,3.2 -0.161,0.614 -0.605,1.191 -1.206,1.531 -0.603,0.343 -1.33,0.43 -1.994,0.237 -6.08,-1.756 -12.325,-3.245 -18.598,-4.432 l -14.424,81.804 c -0.011,0.065 -0.025,0.129 -0.042,0.193 l -0.558,2.094 -6.372,36.108"
       fill="#464646"
       style="fill:#073984" /><path
       id="path62"
       d="m 326.213,522.508 10.156,-38.114 19.675,-111.585 c 0.181,-1.031 -0.126,-2.059 -0.846,-2.819 -0.719,-0.761 -1.728,-1.126 -2.767,-1.004 l -32.271,3.819 v 22.033 c 6.567,0.08 13.161,0.471 19.632,1.165 0.685,0.072 1.303,0.409 1.738,0.947 0.434,0.539 0.632,1.214 0.557,1.902 -0.049,0.622 -0.385,1.267 -0.914,1.708 -0.533,0.443 -1.232,0.655 -1.92,0.585 -6.3,-0.675 -12.709,-1.057 -19.093,-1.136 v 83.066 c 0,0.066 -0.003,0.132 -0.009,0.197 l -0.186,2.159 -0.005,36.697"
       fill="#464646"
       style="fill:#073984" /><path
       id="path64"
       d="m 312.164,522.298 3.384,-39.322 V 369.669 c 0,-1.047 -0.482,-2.005 -1.322,-2.63 -0.841,-0.625 -1.898,-0.809 -2.899,-0.508 l -31.118,9.365 3.827,21.698 c 6.481,-1.062 13.042,-1.821 19.537,-2.262 0.688,-0.045 1.355,0.178 1.875,0.631 0.521,0.455 0.833,1.085 0.879,1.775 0.059,0.624 -0.16,1.318 -0.606,1.844 -0.449,0.529 -1.102,0.859 -1.793,0.908 -6.315,0.429 -12.693,1.167 -18.995,2.196 l 14.424,81.804 c 0.012,0.065 0.021,0.13 0.026,0.196 l 0.192,2.158 6.363,36.116"
       fill="#464646"
       style="fill:#073984" /><path
       id="path66"
       d="M 298.292,524.488 294.798,485.195 275.123,373.61 c -0.182,-1.03 -0.823,-1.891 -1.759,-2.36 -0.936,-0.469 -2.009,-0.468 -2.944,0.003 l -29.018,14.626 7.535,20.704 c 6.201,-2.171 12.53,-4.059 18.848,-5.62 1.392,-0.34 2.791,0.509 3.131,1.892 0.166,0.603 0.071,1.323 -0.276,1.918 -0.349,0.598 -0.933,1.038 -1.604,1.207 -6.149,1.52 -12.302,3.354 -18.331,5.463 l 28.41,78.056 c 0.023,0.062 0.043,0.125 0.06,0.188 l 0.564,2.092 12.543,34.478"
       fill="#464646"
       style="fill:#073984" /><path
       id="path68"
       d="M 285.02,529.095 274.75,490.983 235.997,384.51 c -0.358,-0.984 -1.139,-1.72 -2.142,-2.019 -1.004,-0.301 -2.059,-0.112 -2.897,0.514 l -26.038,19.443 11.016,19.081 c 5.724,-3.212 11.629,-6.17 17.585,-8.808 1.307,-0.578 2.837,0.016 3.413,1.32 0.268,0.562 0.3,1.29 0.061,1.937 -0.24,0.651 -0.741,1.186 -1.374,1.468 -5.791,2.564 -11.531,5.438 -17.099,8.561 l 41.533,71.937 c 0.033,0.057 0.063,0.116 0.091,0.175 l 0.919,1.963 18.338,31.772"
       fill="#464646"
       style="fill:#073984" /><path
       id="path70"
       d="M 272.743,535.916 256.01,500.164 199.357,402.038 c -0.523,-0.907 -1.42,-1.496 -2.46,-1.617 -1.039,-0.123 -2.047,0.247 -2.764,1.01 l -22.266,23.669 14.163,16.878 c 5.082,-4.16 10.384,-8.098 15.788,-11.728 0.574,-0.385 1.259,-0.522 1.938,-0.391 0.68,0.133 1.266,0.522 1.651,1.097 0.365,0.517 0.52,1.227 0.396,1.903 -0.125,0.68 -0.523,1.292 -1.095,1.679 -5.258,3.531 -10.413,7.358 -15.354,11.401 l 53.393,63.632 c 0.043,0.051 0.083,0.103 0.121,0.158 l 1.246,1.773 23.603,28.136"
       fill="#464646"
       style="fill:#073984" /><path
       id="path72"
       d="m 261.854,544.79 -22.705,-32.329 -72.832,-86.798 c -0.673,-0.802 -1.656,-1.232 -2.703,-1.165 -1.045,0.061 -1.974,0.599 -2.547,1.474 l -17.817,27.175 16.878,14.163 c 4.284,-4.979 8.821,-9.779 13.512,-14.291 1.024,-0.988 2.663,-0.958 3.653,0.068 0.449,0.442 0.728,1.115 0.725,1.804 -0.003,0.693 -0.29,1.367 -0.787,1.849 -4.566,4.391 -8.978,9.056 -13.142,13.894 l 63.632,53.394 c 0.05,0.042 0.099,0.087 0.146,0.133 l 1.535,1.53 28.13,23.611"
       fill="#464646"
       style="fill:#073984" /><path
       id="path74"
       d="m 252.647,555.385 -27.965,-27.887 -86.798,-72.833 c -0.802,-0.673 -1.847,-0.918 -2.864,-0.678 -1.019,0.242 -1.839,0.933 -2.252,1.895 l -12.828,29.857 19.081,11.016 c 3.354,-5.648 6.989,-11.163 10.826,-16.42 0.838,-1.151 2.458,-1.407 3.611,-0.566 0.521,0.361 0.911,0.975 1.026,1.654 0.116,0.682 -0.05,1.394 -0.455,1.954 -3.736,5.12 -7.27,10.479 -10.529,15.965 l 71.938,41.533 c 0.057,0.033 0.113,0.068 0.167,0.106 l 1.776,1.24 31.78,18.354"
       fill="#464646"
       style="fill:#073984" /><path
       id="path76"
       d="M 245.4,567.408 213.044,544.82 114.918,488.167 c -0.907,-0.523 -1.977,-0.585 -2.938,-0.17 -0.961,0.415 -1.65,1.238 -1.89,2.257 l -7.448,31.63 20.704,7.537 c 2.321,-6.142 4.943,-12.204 7.81,-18.051 0.307,-0.621 0.832,-1.083 1.482,-1.307 0.656,-0.226 1.36,-0.18 1.982,0.126 0.565,0.258 1.058,0.795 1.291,1.445 0.234,0.653 0.194,1.385 -0.11,2.008 -2.787,5.685 -5.337,11.577 -7.595,17.547 l 78.056,28.411 c 0.062,0.022 0.123,0.047 0.182,0.075 l 1.966,0.913 34.479,12.555"
       fill="#464646"
       style="fill:#073984" /><path
       id="path78"
       d="M 240.378,580.525 204.589,563.898 98.117,525.146 c -0.983,-0.356 -2.048,-0.233 -2.923,0.343 -0.874,0.576 -1.41,1.506 -1.469,2.551 l -1.842,32.443 21.698,3.826 c 1.219,-6.45 2.749,-12.875 4.557,-19.133 0.191,-0.663 0.63,-1.213 1.236,-1.547 0.605,-0.333 1.305,-0.412 1.97,-0.217 0.6,0.155 1.178,0.598 1.52,1.196 0.344,0.601 0.434,1.327 0.244,1.993 -1.759,6.087 -3.248,12.333 -4.435,18.606 l 81.804,14.425 c 0.065,0.011 0.129,0.025 0.193,0.042 l 2.094,0.558 36.108,6.373"
       fill="#464646"
       style="fill:#073984" /><path
       id="path80"
       d="M 237.693,594.312 199.578,584.156 87.993,564.48 c -1.03,-0.179 -2.058,0.127 -2.819,0.846 -0.761,0.719 -1.127,1.727 -1.004,2.767 l 3.819,32.271 h 22.033 c 0.08,-6.563 0.471,-13.157 1.165,-19.633 0.154,-1.42 1.432,-2.447 2.849,-2.295 0.621,0.049 1.267,0.384 1.707,0.914 0.443,0.533 0.657,1.233 0.586,1.92 -0.675,6.301 -1.057,12.71 -1.136,19.094 h 83.066 c 0.066,0 0.132,0.002 0.198,0.008 l 2.159,0.187 36.697,0.005"
       fill="#464646"
       style="fill:#073984" /><g
       id="g88"
       style="fill:#073984">
		<path
   id="path86"
   d="m 317.854,528.764 c -40.751,0 -73.905,33.154 -73.905,73.905 0,40.752 33.154,73.906 73.905,73.906 40.752,0 73.905,-33.154 73.905,-73.906 10e-4,-40.752 -33.153,-73.905 -73.905,-73.905 z m 0,126.084 c -28.771,0 -52.178,-23.407 -52.178,-52.179 0,-28.771 23.407,-52.178 52.178,-52.178 28.771,0 52.179,23.407 52.179,52.178 0,28.771 -23.407,52.179 -52.179,52.179 z"
   fill="#464646"
   style="fill:#073984" />
	</g><g
       id="g92"
       style="fill:#073984">
		<path
   id="path90"
   d="m 317.854,862.304 c -69.351,0 -134.551,-27.007 -183.589,-76.046 C 85.227,737.22 58.22,672.02 58.22,602.669 c 0,-69.351 27.006,-134.55 76.045,-183.588 49.038,-49.039 114.238,-76.045 183.589,-76.045 69.351,0 134.551,27.007 183.589,76.045 49.039,49.038 76.045,114.238 76.045,183.588 0,69.35 -27.007,134.551 -76.045,183.589 -49.038,49.039 -114.237,76.046 -183.589,76.046 z m 0,-500.819 c -132.99,0 -241.185,108.195 -241.185,241.184 0,132.989 108.195,241.186 241.185,241.186 132.99,0 241.185,-108.196 241.185,-241.186 0,-132.99 -108.195,-241.184 -241.185,-241.184 z"
   fill="#464646"
   style="fill:#073984" />
	</g><path
       id="path94"
       d="m 317.854,557.181 c -25.083,0 -45.489,20.406 -45.489,45.488 0,25.083 20.407,45.489 45.489,45.489 25.083,0 45.489,-20.406 45.489,-45.489 10e-4,-25.082 -20.405,-45.488 -45.489,-45.488 z"
       fill="#464646"
       style="fill:#073984" /></g></g>
<path
   fill="#464646"
   d="M1071.231,412.583c-50.773-50.773-118.281-78.736-190.086-78.736s-139.312,27.962-190.085,78.736  c-50.773,50.774-78.736,118.281-78.736,190.085s27.963,139.312,78.736,190.086s118.28,78.736,190.085,78.736  s139.312-27.963,190.086-78.736s78.736-118.281,78.736-190.086S1122.005,463.357,1071.231,412.583z M1112.061,682.772  c-0.932,0.614-2.066,0.748-3.115,0.365l-110.399-40.183l-37.222-17.293c0.61-2.126,1.156-4.279,1.599-6.471  c-0.001,0.006-0.002,0.013-0.004,0.019l37.57,6.631l2.182,0.581c0.063,0.017,0.128,0.031,0.193,0.042l84.911,14.972  c-1.233,6.534-2.783,13.044-4.616,19.389c-0.19,0.666-0.104,1.394,0.24,1.996c0.342,0.6,0.92,1.044,1.533,1.203  c1.363,0.39,2.797-0.399,3.198-1.769c1.881-6.512,3.473-13.202,4.739-19.921l15.063,2.656l7.607,1.342l-1.914,33.722  C1113.563,681.168,1112.992,682.159,1112.061,682.772z M1094.644,721.653c-1.026,0.444-2.166,0.377-3.132-0.181l-0.974-0.562  c-0.001,0-0.001-0.001-0.002-0.001l-23.681-13.673c-0.004-0.002-0.009-0.004-0.013-0.006l-0.479-0.277  c-0.004-0.002-0.007-0.004-0.01-0.006l-76.587-44.217l-1.845-1.288c-0.001-0.001-0.003-0.002-0.005-0.003l-31.806-22.204  c0,0.002-0.001,0.003-0.002,0.005c0.973-1.985,1.854-4.021,2.67-6.09l35.879,13.065l1.398,0.648l0.643,0.299  c0.06,0.027,0.12,0.053,0.183,0.075l81.021,29.489c-2.349,6.22-5.005,12.362-7.91,18.288c-0.306,0.624-0.347,1.357-0.112,2.012  c0.233,0.651,0.728,1.189,1.286,1.443c0.619,0.307,1.32,0.354,1.979,0.132c0.656-0.223,1.187-0.688,1.491-1.311  c2.984-6.086,5.713-12.398,8.127-18.795l19.562,7.12l2.071,0.754l-7.741,32.878C1096.401,720.335,1095.667,721.211,1094.644,721.653  z M1070.738,756.919c-1.082,0.259-2.197-0.005-3.052-0.722l-0.862-0.724c0,0,0-0.001-0.001-0.001l-9.175-7.698l-79.961-67.095  l-1.594-1.59c-0.002-0.002-0.004-0.004-0.007-0.006l-27.485-27.408c1.302-1.787,2.543-3.62,3.703-5.51h-0.001l33.069,19.099  l1.845,1.288c0.055,0.038,0.11,0.073,0.167,0.106l74.67,43.111c-3.398,5.726-7.082,11.312-10.973,16.644  c-0.403,0.56-0.569,1.271-0.453,1.951c0.115,0.678,0.504,1.291,1.034,1.661c1.146,0.827,2.763,0.576,3.605-0.572  c3.994-5.474,7.778-11.216,11.266-17.098l19.938,11.511l-13.333,31.034C1072.698,755.926,1071.824,756.661,1070.738,756.919z   M1041.073,787.498c-1.12,0.065-2.164-0.387-2.881-1.241l-75.518-89.998l-1.293-1.842c-0.002-0.003-0.005-0.006-0.007-0.009  l-22.315-31.773l0,0c1.591-1.537,3.121-3.134,4.587-4.792l29.273,24.57l1.594,1.59c0.047,0.046,0.096,0.09,0.146,0.133l66.05,55.422  c-4.339,5.046-8.936,9.908-13.691,14.481c-0.499,0.482-0.787,1.158-0.79,1.853c-0.003,0.691,0.276,1.364,0.719,1.798  c0.987,1.028,2.626,1.064,3.66,0.074c4.884-4.697,9.607-9.695,14.064-14.881l5.863,4.92l11.772,9.877l-18.52,28.247  C1043.176,786.859,1042.187,787.433,1041.073,787.498z M1006.548,812.461c-1.108-0.128-2.063-0.756-2.621-1.722l-3.455-5.985  l-10.78-18.672c-0.002-0.003-0.004-0.006-0.006-0.009l-0.277-0.48c-0.002-0.004-0.004-0.008-0.006-0.012l-44.218-76.586  l-0.954-2.038c-0.002-0.005-0.005-0.01-0.007-0.014l-16.441-35.132c1.836-1.242,3.607-2.572,5.336-3.953l0,0l24.558,29.275  l1.296,1.846c0.038,0.054,0.078,0.105,0.12,0.156l55.422,66.05c-5.147,4.214-10.519,8.205-15.99,11.88  c-0.575,0.386-0.979,0.997-1.104,1.679c-0.127,0.68,0.028,1.392,0.4,1.919c0.797,1.178,2.404,1.49,3.585,0.699  c5.622-3.775,11.142-7.878,16.435-12.214l8.414,10.026l6.385,7.609l-23.144,24.602  C1008.729,812.198,1007.66,812.596,1006.548,812.461z M968.212,831.051c-1.068-0.319-1.899-1.104-2.281-2.151L925.749,718.5  l-10.682-39.64c2.033-0.909,4.033-1.88,5.978-2.943c-0.006,0.003-0.012,0.007-0.018,0.01l19.083,33.063l0.955,2.041  c0.027,0.06,0.058,0.118,0.091,0.175l43.111,74.67c-5.806,3.259-11.788,6.256-17.815,8.925c-0.636,0.281-1.139,0.817-1.38,1.471  c-0.239,0.65-0.206,1.381,0.064,1.941c0.575,1.301,2.106,1.894,3.411,1.316c6.199-2.745,12.347-5.826,18.306-9.174l1.979,3.428  l9.532,16.51l-27.063,20.21C970.406,831.168,969.281,831.371,968.212,831.051z M927.231,842.699c-0.997-0.5-1.68-1.416-1.873-2.515  l-20.401-115.7l-0.199-2.241v-0.001l-3.435-38.627h-0.001c1.288-0.321,2.559-0.685,3.82-1.067c0.856-0.261,1.712-0.524,2.558-0.81  l13.053,35.878l0.586,2.174c0.018,0.063,0.037,0.126,0.06,0.188L950.888,801c-6.277,2.198-12.69,4.111-19.103,5.696  c-0.673,0.169-1.259,0.61-1.607,1.211c-0.348,0.597-0.441,1.318-0.274,1.914c0.34,1.386,1.747,2.232,3.132,1.895  c6.577-1.625,13.168-3.593,19.621-5.855l7.874,21.633l-30.161,15.203C929.37,843.196,928.227,843.197,927.231,842.699z   M884.852,847.056c-0.896-0.665-1.409-1.687-1.409-2.802v-1.127v-27.345v-0.578v-88.436l3.521-40.897c0,0-0.001,0-0.002,0  c2.227-0.154,4.434-0.378,6.608-0.704l6.621,37.581l0.199,2.241c0.006,0.065,0.015,0.131,0.026,0.195l14.973,84.912  c-6.568,1.076-13.215,1.847-19.79,2.293c-0.692,0.047-1.348,0.377-1.798,0.905c-0.449,0.526-0.669,1.222-0.61,1.85  c0.097,1.423,1.325,2.503,2.756,2.406c6.764-0.459,13.595-1.251,20.341-2.359l3.997,22.671l-32.344,9.735  C886.871,847.919,885.746,847.722,884.852,847.056z M879.05,724.23l-0.168,1.962l-0.024,0.28c-0.006,0.065-0.009,0.132-0.009,0.197  v86.222c-6.65-0.08-13.331-0.476-19.896-1.179c-0.679-0.075-1.39,0.141-1.924,0.583c-0.531,0.441-0.868,1.088-0.918,1.72  c-0.148,1.419,0.886,2.693,2.297,2.841c6.741,0.723,13.606,1.128,20.44,1.208v23.021l-33.542,3.97  c-1.112,0.131-2.183-0.258-2.949-1.069c-0.766-0.811-1.094-1.906-0.9-3.005l20.401-115.699l10.562-39.644  c2.187,0.229,4.402,0.35,6.635,0.405L879.05,724.23z M801.043,833.586c-0.614-0.932-0.747-2.067-0.366-3.116l0.385-1.057  c0-0.001,0.001-0.001,0.001-0.002l9.353-25.695c0.001-0.003,0.001-0.005,0.002-0.008l30.442-83.638l0.9-1.938l0.048-0.104v-0.001  l16.345-35.18c2.12,0.608,4.267,1.153,6.452,1.595l-6.632,37.577l-0.156,0.588l-0.423,1.586c-0.017,0.064-0.031,0.128-0.042,0.193  l-14.973,84.911c-6.541-1.235-13.053-2.785-19.4-4.62c-0.664-0.185-1.389-0.095-1.988,0.247c-0.596,0.342-1.038,0.917-1.198,1.53  c-0.189,0.663-0.11,1.36,0.223,1.964c0.335,0.606,0.886,1.045,1.546,1.234c6.509,1.88,13.199,3.472,19.92,4.739l-3.997,22.671  l-33.724-1.914C802.646,835.087,801.656,834.517,801.043,833.586z M764.566,818.181c-1.086-0.256-1.962-0.989-2.404-2.014  c-0.443-1.023-0.377-2.165,0.181-3.131l0.562-0.975l0.001-0.001l4.836-8.376l53.343-92.394l1.289-1.846  c0.002-0.003,0.004-0.006,0.006-0.009l22.199-31.8h-0.001c1.984,0.972,4.019,1.854,6.086,2.668L837.6,716.184l-0.948,2.041  c-0.027,0.06-0.053,0.12-0.075,0.183l-29.489,81.021c-6.223-2.351-12.364-5.008-18.299-7.917c-0.621-0.299-1.35-0.339-2.001-0.105  c-0.646,0.231-1.183,0.721-1.448,1.296c-0.628,1.281-0.096,2.834,1.185,3.461c6.089,2.984,12.401,5.714,18.795,8.126l-7.875,21.634  L764.566,818.181z M728.914,794.662c-1.024-0.44-1.761-1.315-2.019-2.4s0.005-2.197,0.723-3.052l0.724-0.862l0,0l17.577-20.947  c0.001-0.002,0.002-0.003,0.004-0.005l0.363-0.434c0.002-0.002,0.003-0.003,0.005-0.005l44.513-53.049l12.332-14.697l0.007-0.007  l1.582-1.586c0.002-0.003,0.005-0.005,0.007-0.008l27.408-27.485c1.786,1.303,3.619,2.544,5.51,3.703l-19.096,33.064l-1.292,1.851  c-0.037,0.054-0.072,0.109-0.105,0.166l-43.111,74.67c-5.719-3.395-11.306-7.077-16.639-10.968  c-0.561-0.407-1.273-0.575-1.957-0.458c-0.681,0.115-1.295,0.507-1.648,1.019c-0.41,0.559-0.578,1.243-0.472,1.928  s0.475,1.287,1.032,1.692c5.479,3.997,11.221,7.781,17.098,11.267l-1.979,3.428l-9.532,16.51L728.914,794.662z M697.888,765.311  c-0.933-0.611-1.506-1.601-1.571-2.714c-0.065-1.114,0.387-2.163,1.241-2.88l7.413-6.22l14.397-12.081  c0.002-0.001,0.003-0.003,0.005-0.004l0.434-0.365c0.002-0.001,0.004-0.002,0.005-0.003l67.745-56.845l1.842-1.294  c0.002-0.001,0.003-0.002,0.005-0.003l31.776-22.318c1.537,1.591,3.135,3.121,4.793,4.587l-24.566,29.269l-1.593,1.598  c-0.047,0.047-0.091,0.095-0.134,0.146l-55.423,66.05c-5.042-4.337-9.906-8.935-14.487-13.698c-0.482-0.495-1.155-0.78-1.846-0.783  c-0.004,0-0.008,0-0.012,0c-0.684,0-1.35,0.276-1.794,0.726c-1.021,0.987-1.054,2.625-0.067,3.654  c4.698,4.886,9.696,9.608,14.882,14.064l-14.798,17.636L697.888,765.311z M643.94,563.176  C643.941,563.176,643.941,563.176,643.94,563.176l13.334,2.351l14.167,2.498l0,0l87.091,15.356l2.175,0.58c0.001,0,0.002,0,0.003,0  l37.467,9.983c0-0.005,0.001-0.01,0.002-0.015c-0.229,2.191-0.352,4.413-0.407,6.65l-38.178-0.005l-2.252-0.194  c-0.065-0.005-0.132-0.008-0.197-0.008h-86.221c0.08-6.658,0.476-13.338,1.179-19.896c0.072-0.689-0.141-1.391-0.584-1.924  c-0.441-0.531-1.088-0.867-1.711-0.917c-1.406-0.146-2.691,0.873-2.85,2.296c-0.722,6.741-1.127,13.606-1.208,20.44h-23.021  l-3.969-33.542c-0.132-1.108,0.259-2.183,1.069-2.949c0.811-0.767,1.905-1.094,3.004-0.9L643.94,563.176z M650.23,522.566  c0.932-0.613,2.066-0.746,3.115-0.365l110.399,40.182l2.041,0.948l0,0l35.181,16.345c0,0,0,0,0-0.001  c-0.609,2.122-1.154,4.269-1.596,6.456c0-0.001,0-0.002,0-0.002l-37.574-6.631l-2.177-0.58c-0.063-0.017-0.128-0.031-0.193-0.042  l-84.911-14.972c1.233-6.535,2.783-13.045,4.616-19.39c0.19-0.666,0.103-1.393-0.24-1.995c-0.342-0.599-0.92-1.042-1.526-1.2  c-1.368-0.398-2.803,0.393-3.205,1.766c-1.881,6.513-3.473,13.203-4.738,19.92l-22.672-3.998l1.915-33.723  C648.729,524.171,649.299,523.18,650.23,522.566z M667.647,483.685c1.024-0.442,2.165-0.376,3.132,0.182l23.383,13.5l1.273,0.735  l0,0l77.088,44.507l33.654,23.495c0.001-0.001,0.002-0.003,0.002-0.004c-0.972,1.985-1.854,4.02-2.67,6.089l-35.878-13.064  l-2.041-0.948c-0.06-0.028-0.12-0.053-0.183-0.075l-81.021-29.49c2.352-6.226,5.008-12.368,7.91-18.288  c0.305-0.623,0.347-1.354,0.113-2.008c-0.231-0.651-0.724-1.189-1.293-1.449c-0.619-0.305-1.322-0.35-1.977-0.128  c-0.655,0.224-1.184,0.689-1.488,1.31c-2.981,6.081-5.711,12.394-8.126,18.794l-21.634-7.874l7.741-32.877  C665.89,485.004,666.624,484.128,667.647,483.685z M691.553,448.419c1.088-0.257,2.197,0.005,3.052,0.722l89.999,75.518  l29.086,29.004c-0.65,0.893-1.287,1.798-1.904,2.716c-0.618,0.917-1.219,1.848-1.799,2.793l-33.068-19.099l-1.846-1.288  c-0.054-0.038-0.109-0.073-0.166-0.106l-74.67-43.11c3.396-5.722,7.079-11.31,10.971-16.642c0.406-0.562,0.572-1.276,0.454-1.96  c-0.117-0.68-0.509-1.294-1.022-1.646c-1.151-0.842-2.771-0.589-3.616,0.564c-3.995,5.476-7.779,11.219-11.267,17.097l-13.995-8.08  l-5.941-3.431l13.333-31.034C689.593,449.413,690.468,448.677,691.553,448.419z M721.218,417.84  c1.124-0.059,2.164,0.387,2.881,1.242l0.722,0.86c0,0,0.001,0.002,0.002,0.002l9.064,10.802l8.885,10.588v0l56.845,67.745  l23.615,33.624c-1.592,1.538-3.123,3.135-4.589,4.793c0.001,0,0.001-0.001,0.002-0.001l-29.273-24.57l-0.716-0.713l-0.878-0.875  c-0.047-0.046-0.096-0.091-0.146-0.133l-66.05-55.422c4.335-5.042,8.932-9.905,13.691-14.482c0.498-0.481,0.786-1.154,0.79-1.846  c0.005-0.689-0.272-1.362-0.719-1.804c-0.479-0.5-1.122-0.782-1.813-0.796c-0.73-0.018-1.349,0.243-1.847,0.722  c-4.887,4.699-9.61,9.698-14.064,14.881l-17.636-14.798l18.52-28.247C719.115,418.479,720.104,417.906,721.218,417.84z   M758.364,394.6l11.007,19.064l3.229,5.592c0,0,0.001,0.001,0.001,0.002l15.404,26.68l29.102,50.406l0.954,2.038  c0.002,0.003,0.004,0.006,0.005,0.01l16.444,35.135c-1.837,1.243-3.608,2.572-5.337,3.953l-24.559-29.276l-1.295-1.845  c-0.038-0.054-0.078-0.106-0.12-0.156l-55.422-66.049c5.149-4.217,10.521-8.207,15.995-11.883c0.574-0.386,0.975-0.998,1.101-1.679  c0.125-0.678-0.03-1.389-0.395-1.906c-0.385-0.575-0.971-0.965-1.649-1.099c-0.682-0.134-1.37,0.005-1.942,0.391  c-5.626,3.778-11.146,7.88-16.435,12.213l-4.487-5.347l-10.312-12.289l23.144-24.602c0.766-0.813,1.845-1.203,2.946-1.076  C756.852,393.006,757.807,393.634,758.364,394.6z M794.079,374.289c1.068,0.319,1.899,1.104,2.281,2.152l17.102,46.988l23.08,63.412  l0.145,0.535l10.537,39.104c-2.027,0.906-4.021,1.874-5.96,2.933l-19.084-33.065l-0.954-2.039c-0.027-0.06-0.058-0.118-0.091-0.175  l-43.11-74.67c5.802-3.257,11.785-6.255,17.826-8.929c0.63-0.283,1.129-0.818,1.368-1.467c0.238-0.646,0.206-1.371-0.067-1.949  c-0.582-1.297-2.114-1.882-3.408-1.308c-6.2,2.746-12.348,5.827-18.306,9.174l-11.511-19.938l27.063-20.209  C791.885,374.168,793.01,373.969,794.079,374.289z M835.06,362.639c0.997,0.5,1.68,1.417,1.874,2.515l0.195,1.106  c0,0.001,0,0.002,0,0.003l4.748,26.929c0,0.002,0.001,0.004,0.002,0.007l0.098,0.558c0.001,0.001,0.001,0.003,0.001,0.005  l15.356,87.092l0.199,2.242c0,0,0,0.001,0,0.001l3.435,38.626c-2.162,0.539-4.285,1.172-6.377,1.876l-13.053-35.878l-0.586-2.173  c-0.018-0.063-0.037-0.126-0.06-0.188l-29.489-81.021c6.279-2.2,12.691-4.113,19.1-5.697c0.673-0.168,1.259-0.608,1.608-1.207  c0.349-0.596,0.443-1.318,0.276-1.919c-0.165-0.673-0.583-1.241-1.178-1.599c-0.589-0.354-1.283-0.461-1.954-0.295  c-6.579,1.625-13.169,3.593-19.621,5.855l-7.874-21.633l30.162-15.203C832.919,362.14,834.062,362.14,835.06,362.639z   M877.44,358.283c0.895,0.665,1.408,1.687,1.408,2.802v1.126v27.345v0.579v88.435l-3.52,40.898  c-2.226,0.154-4.433,0.377-6.607,0.704l-6.621-37.579l-0.199-2.244c-0.006-0.065-0.015-0.13-0.026-0.195l-14.973-84.912  c6.566-1.076,13.214-1.846,19.798-2.293c0.69-0.048,1.345-0.379,1.793-0.908c0.446-0.526,0.666-1.22,0.607-1.847  c-0.047-0.69-0.36-1.321-0.882-1.775c-0.521-0.452-1.181-0.679-1.874-0.63c-6.764,0.459-13.595,1.252-20.34,2.36l-3.998-22.672  l32.344-9.734C875.417,357.421,876.545,357.618,877.44,358.283z M883.241,481.108l0.192-2.242c0.006-0.065,0.009-0.131,0.009-0.197  v-86.222c6.654,0.08,13.335,0.476,19.902,1.18c0.686,0.068,1.388-0.144,1.92-0.587c0.529-0.441,0.865-1.086,0.915-1.717  c0.147-1.414-0.882-2.688-2.296-2.841c-6.742-0.722-13.607-1.128-20.441-1.208v-23.021l33.542-3.97  c1.107-0.133,2.183,0.259,2.949,1.069c0.766,0.811,1.095,1.906,0.901,3.004l-0.194,1.103c-0.001,0.002-0.002,0.004-0.002,0.007  l-4.748,26.929v0.001l-0.1,0.566c-0.001,0-0.001,0.001-0.001,0.002l-15.357,87.092l-10.562,39.644  c-2.187-0.229-4.402-0.35-6.635-0.405L883.241,481.108z M961.248,371.754c0.614,0.932,0.747,2.067,0.366,3.115l-0.383,1.052  c-0.001,0.002-0.002,0.004-0.003,0.006l-9.353,25.696c-0.001,0.002-0.001,0.005-0.002,0.008l-30.442,83.638l-0.732,1.577  l-0.216,0.464c-0.001,0.001-0.001,0.003-0.002,0.004l-16.343,35.177c-2.127-0.611-4.279-1.156-6.471-1.599  c0.006,0.001,0.013,0.002,0.019,0.003l6.632-37.577l0.424-1.594l0.155-0.581c0.017-0.063,0.031-0.128,0.042-0.192l14.973-84.912  c6.538,1.234,13.048,2.784,19.388,4.616c0.665,0.191,1.394,0.103,1.995-0.24c0.6-0.341,1.044-0.919,1.2-1.521  c0.194-0.665,0.118-1.365-0.216-1.972c-0.334-0.607-0.885-1.047-1.549-1.239c-6.511-1.881-13.2-3.473-19.92-4.739l0.185-1.049  l3.813-21.623l33.722,1.915C959.645,370.252,960.635,370.822,961.248,371.754z M997.725,387.159  c1.086,0.255,1.962,0.989,2.404,2.013c0.443,1.024,0.377,2.166-0.181,3.131l-0.561,0.971c-0.001,0.001-0.002,0.002-0.003,0.004  l-13.672,23.681c0,0,0,0,0,0.001l-44.507,77.087l-1.289,1.845c-0.003,0.005-0.006,0.01-0.009,0.014l-22.196,31.795c0,0,0,0,0.001,0  c-1.857-0.91-3.762-1.735-5.694-2.506c-0.132-0.052-0.261-0.111-0.393-0.163l13.062-35.869l0.771-1.663l0.181-0.387  c0.027-0.06,0.053-0.121,0.075-0.183l29.489-81.022c6.228,2.352,12.37,5.009,18.299,7.917c0.625,0.301,1.355,0.339,2.008,0.104  c0.648-0.234,1.184-0.727,1.441-1.294c0.626-1.277,0.097-2.829-1.185-3.46c-6.09-2.985-12.402-5.714-18.794-8.126l7.874-21.633  L997.725,387.159z M1033.376,410.676c1.025,0.44,1.762,1.315,2.02,2.401s-0.005,2.198-0.723,3.052l-8.548,10.187l-9.753,11.623  c-0.001,0.001-0.002,0.003-0.003,0.004l-0.369,0.439v0l-56.845,67.745l-29.004,29.086c-1.787-1.302-3.62-2.543-5.51-3.703  l19.094-33.061l1.294-1.853c0.037-0.054,0.072-0.109,0.105-0.167l43.111-74.67c5.718,3.394,11.305,7.077,16.639,10.968  c0.561,0.408,1.273,0.573,1.957,0.458c0.681-0.116,1.295-0.507,1.648-1.02c0.409-0.557,0.577-1.24,0.472-1.924  c-0.105-0.684-0.472-1.286-1.032-1.696c-5.475-3.995-11.217-7.779-17.098-11.267l11.511-19.938L1033.376,410.676z M1064.403,440.028  c0.933,0.611,1.506,1.601,1.571,2.714c0.065,1.114-0.387,2.164-1.241,2.881l-0.858,0.72c-0.002,0.001-0.003,0.002-0.005,0.003  l-20.947,17.577c-0.002,0.001-0.003,0.003-0.005,0.004l-0.434,0.364c-0.002,0.001-0.003,0.002-0.005,0.003l-67.744,56.845  l-1.842,1.293c-0.003,0.002-0.006,0.004-0.009,0.006l-31.774,22.315c-1.537-1.591-3.134-3.122-4.793-4.588  c0.001,0,0.001,0.001,0.001,0.001l24.571-29.274l1.589-1.594c0.046-0.046,0.091-0.095,0.133-0.145l55.422-66.049  c5.041,4.334,9.903,8.93,14.476,13.684c0.479,0.501,1.153,0.792,1.848,0.798c0.68,0.015,1.367-0.272,1.812-0.723  c1.026-0.986,1.06-2.625,0.071-3.657c-4.697-4.885-9.696-9.608-14.882-14.064l14.798-17.635L1064.403,440.028z M962.091,582.491  c0,0,0.001,0.002,0.001,0.003c-0.539-2.163-1.173-4.287-1.878-6.379l35.874-13.052l2.178-0.586c0.063-0.017,0.126-0.037,0.188-0.06  l81.022-29.489c2.199,6.275,4.112,12.688,5.697,19.103c0.169,0.67,0.607,1.255,1.205,1.604c0.594,0.348,1.318,0.444,1.92,0.277  c0.674-0.165,1.242-0.583,1.6-1.178c0.357-0.594,0.461-1.292,0.294-1.954c-1.627-6.584-3.594-13.173-5.855-19.621l21.633-7.874  l15.204,30.161c0.502,0.996,0.503,2.139,0.003,3.136c-0.5,0.998-1.417,1.681-2.515,1.875l-115.7,20.4L962.091,582.491z   M684.285,690.071c2.744,6.198,5.825,12.346,9.174,18.307l-19.937,11.511l-20.21-27.063c-0.667-0.894-0.866-2.02-0.548-3.089  c0.319-1.068,1.104-1.9,2.151-2.282l1.053-0.384c0.002,0,0.004,0,0.006-0.001l25.695-9.353c0,0,0.001-0.001,0.002-0.001  l83.645-30.443l39.639-10.681c0.906,2.027,1.874,4.021,2.934,5.96l-33.063,19.083l-2.041,0.955c-0.06,0.027-0.118,0.059-0.175,0.091  l-74.67,43.11c-3.256-5.799-6.253-11.782-8.928-17.82c-0.282-0.632-0.816-1.133-1.466-1.373c-0.645-0.24-1.372-0.208-1.938,0.06  c-0.633,0.278-1.119,0.787-1.369,1.433S684.006,689.439,684.285,690.071z M641.115,648.757c0.5-0.998,1.417-1.681,2.515-1.875  l1.106-0.195c0.001,0,0.002,0,0.003,0l10.546-1.859l104.045-18.346l2.242-0.199c0.001,0,0.002,0,0.003,0l38.625-3.435v-0.001  c0.539,2.162,1.173,4.285,1.877,6.377l-35.878,13.053l-2.174,0.586c-0.063,0.018-0.126,0.037-0.188,0.06l-81.022,29.489  c-2.201-6.283-4.114-12.696-5.697-19.103c-0.168-0.669-0.606-1.253-1.202-1.603c-0.592-0.348-1.312-0.444-1.937-0.276  c-0.668,0.168-1.231,0.586-1.587,1.177c-0.356,0.594-0.46,1.291-0.293,1.953c1.627,6.585,3.594,13.174,5.855,19.621l-21.633,7.873  l-15.204-30.162C640.616,650.896,640.615,649.754,641.115,648.757z M881.146,525.905c42.328,0,76.765,34.436,76.765,76.764  c0,42.329-34.437,76.766-76.765,76.766s-76.765-34.437-76.765-76.766C804.381,560.341,838.817,525.905,881.146,525.905z   M1078.006,515.268c-2.744-6.197-5.825-12.345-9.174-18.307l6.891-3.978l13.046-7.533l20.209,27.063  c0.668,0.894,0.867,2.02,0.549,3.089c-0.319,1.069-1.104,1.9-2.151,2.282l-1.059,0.385l0,0l-25.695,9.352  c-0.002,0-0.003,0.001-0.005,0.002l-0.538,0.196l-0.001,0l-83.102,30.247l-2.174,0.585c-0.002,0-0.005,0.001-0.007,0.002  l-37.459,10.094l0.001,0.001c-0.906-2.028-1.874-4.022-2.934-5.961l33.064-19.084l2.039-0.955c0.06-0.028,0.118-0.058,0.175-0.091  l74.671-43.111c3.255,5.8,6.253,11.783,8.928,17.824c0.282,0.631,0.817,1.13,1.466,1.371c0.646,0.238,1.371,0.207,1.937-0.06  c0.633-0.278,1.119-0.787,1.369-1.431S1078.286,515.902,1078.006,515.268z M1089.862,474.321c0.812,0.764,1.204,1.838,1.075,2.946  c-0.128,1.108-0.756,2.064-1.723,2.622l-0.974,0.562c-0.001,0-0.001,0-0.002,0.001l-15.009,8.666L987.47,538.63l-37.182,17.402  c-1.243-1.836-2.572-3.607-3.953-5.335l29.276-24.559l0.608-0.427l1.236-0.868c0.054-0.038,0.105-0.078,0.156-0.121l66.049-55.421  c4.216,5.148,8.207,10.521,11.889,16.003c0.389,0.572,1.002,0.971,1.683,1.094c0.68,0.123,1.388-0.035,1.904-0.401  c1.178-0.794,1.493-2.402,0.701-3.587c-3.78-5.628-7.883-11.148-12.214-16.435l17.636-14.798L1089.862,474.321z M636.759,606.374  c0.666-0.895,1.688-1.408,2.803-1.408h1.126h27.345h0.579h88.435l2.242,0.193c0.003,0,0.006,0,0.008,0l38.648,3.327l0,0  c0.154,2.226,0.378,4.433,0.704,6.608v-0.001l-37.579,6.621l-2.244,0.199c-0.065,0.006-0.131,0.015-0.195,0.026l-84.912,14.972  c-1.075-6.562-1.846-13.211-2.293-19.806c-0.051-0.689-0.383-1.341-0.911-1.787c-0.524-0.445-1.225-0.657-1.842-0.604  c-1.423,0.096-2.503,1.331-2.408,2.756c0.46,6.766,1.253,13.597,2.36,20.34l-4.986,0.879l-17.686,3.119l-9.734-32.345  C635.896,608.396,636.094,607.27,636.759,606.374z M672.43,731.018c-0.812-0.765-1.205-1.839-1.076-2.946s0.757-2.062,1.723-2.62  l101.745-58.743l37.182-17.402l0,0c1.243,1.836,2.572,3.607,3.953,5.336l-29.279,24.561l-1.842,1.294  c-0.054,0.038-0.105,0.078-0.156,0.12l-66.049,55.422c-4.217-5.149-8.208-10.522-11.891-16.008c-0.391-0.572-1.007-0.971-1.69-1.092  c-0.682-0.119-1.391,0.041-1.887,0.398c-1.185,0.793-1.504,2.402-0.709,3.591c3.781,5.63,7.883,11.149,12.214,16.436l-17.636,14.798  L672.43,731.018z M1105.818,639.953l-14.398-2.539c-0.002,0-0.004,0-0.006-0.001l-0.559-0.099c-0.002,0-0.004-0.001-0.006-0.001  l-87.091-15.356l-2.175-0.58c-0.004-0.001-0.009-0.002-0.014-0.003l-37.456-9.979c0.229-2.187,0.35-4.402,0.405-6.636l38.188,0.006  l1.954,0.168l0.288,0.024c0.065,0.006,0.132,0.009,0.197,0.009h86.222c-0.08,6.651-0.476,13.332-1.18,19.896  c-0.072,0.688,0.141,1.39,0.584,1.923c0.44,0.531,1.087,0.868,1.704,0.917c0.692,0.078,1.368-0.122,1.908-0.559  c0.535-0.432,0.871-1.046,0.948-1.736c0.722-6.734,1.127-13.599,1.208-20.44h23.021l3.97,33.542  c0.132,1.108-0.259,2.183-1.069,2.948c-0.811,0.767-1.906,1.094-3.005,0.901L1105.818,639.953z M1125.532,598.963  c-0.666,0.896-1.688,1.409-2.803,1.409h-29.05h-88.435l-40.898-3.52c-0.007-0.095-0.018-0.188-0.024-0.282  c-0.153-2.13-0.367-4.243-0.68-6.325l37.582-6.621l2.242-0.2c0.065-0.006,0.13-0.014,0.194-0.026l84.912-14.972  c1.075,6.563,1.846,13.211,2.293,19.805c0.051,0.689,0.383,1.341,0.911,1.788c0.525,0.445,1.225,0.665,1.842,0.604  c0.691-0.046,1.322-0.359,1.777-0.881c0.453-0.52,0.677-1.186,0.631-1.875c-0.46-6.763-1.253-13.593-2.359-20.34l22.671-3.998  l9.734,32.344C1126.395,596.942,1126.197,598.068,1125.532,598.963z"
   id="path98" />
<path
   fill="#464646"
   d="M881.146,656.633c-29.756,0-53.964-24.208-53.964-53.964c0-29.755,24.208-53.963,53.964-53.963  s53.964,24.208,53.964,53.963C935.109,632.425,910.901,656.633,881.146,656.633z M881.146,555.368  c-26.082,0-47.302,21.219-47.302,47.301s21.22,47.302,47.302,47.302s47.302-21.22,47.302-47.302S907.228,555.368,881.146,555.368z"
   id="path100" />
<text
   xml:space="preserve"
   id="text441"
   style="font-style:normal;font-weight:normal;font-size:40px;line-height:1.25;font-family:sans-serif;white-space:pre;shape-inside:url(#rect443);fill:#000000;fill-opacity:1;stroke:none;"
   transform="matrix(1.4590743,0,0,1.6985841,-41.386535,-25.073508)"><tspan
     x="95.232422"
     y="158.39165"><tspan>B4P</tspan></tspan></text><ellipse
   transform="rotate(-5.1798614)"
   ry="83.137108"
   rx="86.36573"
   cy="330.25961"
   cx="542.92389"
   id="path1077"
   style="fill:#77216f;stroke-width:4.7283" /></svg>
